# xmcd
#
# Track frame offsets:
# 150
# 13948
# 31330
# 41006
#
# Disc length: 810 seconds
#
#
# Revision: 0
# Processed by: cddbd v1.5.2PL0 Copyright (c) Steve Scherf et al.
# Submitted via: FreeRIP 2.944 
#
DISCID=2b032804
DTITLE=Russell Oliver - Lost Love and Broken Hearts
DYEAR=2006
DGENRE=Acoustic
TTITLE0=Totally Wrong
TTITLE1=Disappear
TTITLE2=Tubby Custard
TTITLE3=Without You
EXTD=
EXTT0=
EXTT1=
EXTT2=
EXTT3=
PLAYORDER=
